<svg id="visual" viewBox="0 0 960 540" width="960" height="540" xmlns="http://www.w3.org/2000/svg" xmlns:xlink="http://www.w3.org/1999/xlink" version="1.1"><rect x="0" y="0" width="960" height="540" fill="#0f172a"></rect><path d="M0 393L22.8 382C45.7 371 91.3 349 137 343.5C182.7 338 228.3 349 274 352.7C319.7 356.3 365.3 352.7 411.2 358.7C457 364.7 503 380.3 548.8 386.7C594.7 393 640.3 390 686 378.8C731.7 367.7 777.3 348.3 823 337.7C868.7 327 914.3 325 937.2 324L960 323L960 541L937.2 541C914.3 541 868.7 541 823 541C777.3 541 731.7 541 686 541C640.3 541 594.7 541 548.8 541C503 541 457 541 411.2 541C365.3 541 319.7 541 274 541C228.3 541 182.7 541 137 541C91.3 541 45.7 541 22.8 541L0 541Z" fill="#fcd34d"></path><path d="M0 366L22.8 373.7C45.7 381.3 91.3 396.7 137 401C182.7 405.3 228.3 398.7 274 390.5C319.7 382.3 365.3 372.7 411.2 373.8C457 375 503 387 548.8 389.3C594.7 391.7 640.3 384.3 686 386C731.7 387.7 777.3 398.3 823 397.3C868.7 396.3 914.3 383.7 937.2 377.3L960 371L960 541L937.2 541C914.3 541 868.7 541 823 541C777.3 541 731.7 541 686 541C640.3 541 594.7 541 548.8 541C503 541 457 541 411.2 541C365.3 541 319.7 541 274 541C228.3 541 182.7 541 137 541C91.3 541 45.7 541 22.8 541L0 541Z" fill="#fcbd38"></path><path d="M0 430L22.8 428.8C45.7 427.7 91.3 425.3 137 426.3C182.7 427.3 228.3 431.7 274 435C319.7 438.3 365.3 440.7 411.2 441.8C457 443 503 443 548.8 444.8C594.7 446.7 640.3 450.3 686 448.2C731.7 446 777.3 438 823 428.8C868.7 419.7 914.3 409.3 937.2 404.2L960 399L960 541L937.2 541C914.3 541 868.7 541 823 541C777.3 541 731.7 541 686 541C640.3 541 594.7 541 548.8 541C503 541 457 541 411.2 541C365.3 541 319.7 541 274 541C228.3 541 182.7 541 137 541C91.3 541 45.7 541 22.8 541L0 541Z" fill="#fca626"></path><path d="M0 469L22.8 466C45.7 463 91.3 457 137 455.3C182.7 453.7 228.3 456.3 274 456.8C319.7 457.3 365.3 455.7 411.2 451.8C457 448 503 442 548.8 445.8C594.7 449.7 640.3 463.3 686 465.7C731.7 468 777.3 459 823 453.7C868.7 448.3 914.3 446.7 937.2 445.8L960 445L960 541L937.2 541C914.3 541 868.7 541 823 541C777.3 541 731.7 541 686 541C640.3 541 594.7 541 548.8 541C503 541 457 541 411.2 541C365.3 541 319.7 541 274 541C228.3 541 182.7 541 137 541C91.3 541 45.7 541 22.8 541L0 541Z" fill="#fb8d1a"></path><path d="M0 474L22.8 478.5C45.7 483 91.3 492 137 496C182.7 500 228.3 499 274 500.5C319.7 502 365.3 506 411.2 506.8C457 507.7 503 505.3 548.8 505C594.7 504.7 640.3 506.3 686 501.8C731.7 497.3 777.3 486.7 823 484.5C868.7 482.3 914.3 488.7 937.2 491.8L960 495L960 541L937.2 541C914.3 541 868.7 541 823 541C777.3 541 731.7 541 686 541C640.3 541 594.7 541 548.8 541C503 541 457 541 411.2 541C365.3 541 319.7 541 274 541C228.3 541 182.7 541 137 541C91.3 541 45.7 541 22.8 541L0 541Z" fill="#f97316"></path></svg>