<svg version="1.1" viewBox="0.0 0.0 480.0 480.0" fill="none" stroke="none" stroke-linecap="square" stroke-miterlimit="10" xmlns:xlink="http://www.w3.org/1999/xlink" xmlns="http://www.w3.org/2000/svg"><clipPath id="p.0"><path d="m0 0l480.0 0l0 480.0l-480.0 0l0 -480.0z" clip-rule="nonzero"/></clipPath><g clip-path="url(#p.0)"><path fill="#000000" fill-opacity="0.0" d="m0 0l480.0 0l0 480.0l-480.0 0z" fill-rule="evenodd"/><defs><linearGradient id="p.1" gradientUnits="userSpaceOnUse" gradientTransform="matrix(21.911133322484897 0.0 0.0 21.911133322484897 0.0 0.0)" spreadMethod="pad" x1="9.085707331826508E-7" y1="-0.004461363012829453" x2="-0.004461363012829453" y2="21.906671505094206"><stop offset="0.0" stop-color="#b4a7d6"/><stop offset="1.0" stop-color="#3c78d8"/></linearGradient></defs><path fill="url(#p.1)" d="m0 240.0l0 0c0 -132.54834 107.45166 -240.0 240.0 -240.0l0 0c63.651947 0 124.6969 25.285643 169.70563 70.29437c45.008728 45.008728 70.29437 106.053665 70.29437 169.70563l0 0c0 132.54834 -107.45166 240.0 -240.0 240.0l0 0c-132.54834 0 -240.0 -107.45166 -240.0 -240.0zm31.344 0l0 0c0 115.23752 93.41847 208.656 208.656 208.656c115.23752 0 208.656 -93.41849 208.656 -208.656l0 0c0 -115.237526 -93.41849 -208.656 -208.656 -208.656l0 0c-115.237526 0 -208.656 93.41847 -208.656 208.656z" fill-rule="evenodd"/></g></svg>
